HIERARCHY
ROOT mixamorig:Hips
{
	OFFSET 0.000000 201.639420 0.000000
	CHANNELS 6 Xposition Yposition Zposition Xrotation Yrotation Zrotation
	JOINT mixamorig:Spine
	{
		OFFSET 0.006200 19.524994 -2.481800
		CHANNELS 3 Xrotation Yrotation Zrotation
		JOINT mixamorig:Spine1
		{
			OFFSET -0.000900 22.835007 -2.825400
			CHANNELS 3 Xrotation Yrotation Zrotation
			JOINT mixamorig:Spine2
			{
				OFFSET -0.020600 26.552490 -3.193300
				CHANNELS 3 Xrotation Yrotation Zrotation
				JOINT mixamorig:Neck
				{
					OFFSET -0.060000 30.701813 1.352200
					CHANNELS 3 Xrotation Yrotation Zrotation
					JOINT mixamorig:Head
					{
						OFFSET -0.087200 22.547607 3.670900
						CHANNELS 3 Xrotation Yrotation Zrotation
						JOINT mixamorig:HeadTop_End
						{
							OFFSET -0.830600 40.355194 7.893500
							CHANNELS 3 Xrotation Yrotation Zrotation
							End Site
							{
								OFFSET 0.000000 30.592346 0.000000
							}
						}
						JOINT mixamorig:RightEye
						{
							OFFSET -6.302100 18.118591 16.197100
							CHANNELS 3 Xrotation Yrotation Zrotation
							End Site
							{
								OFFSET 0.000000 30.592346 0.000000
							}
						}
						JOINT mixamorig:LeftEye
						{
							OFFSET 6.741500 18.382690 16.401899
							CHANNELS 3 Xrotation Yrotation Zrotation
							End Site
							{
								OFFSET 0.000000 30.592346 0.000000
							}
						}
					}
				}
				JOINT mixamorig:LeftShoulder
				{
					OFFSET 11.924900 18.230499 1.425400
					CHANNELS 3 Xrotation Yrotation Zrotation
					JOINT mixamorig:LeftArm
					{
						OFFSET 25.435989 -0.697632 -5.229300
						CHANNELS 3 Xrotation Yrotation Zrotation
						JOINT mixamorig:LeftForeArm
						{
							OFFSET 54.684776 0.000000 0.000000
							CHANNELS 3 Xrotation Yrotation Zrotation
							JOINT mixamorig:LeftHand
							{
								OFFSET 55.098175 0.000000 0.000000
								CHANNELS 3 Xrotation Yrotation Zrotation
								JOINT mixamorig:LeftHandMiddle1
								{
									OFFSET 23.369751 0.000000 0.000000
									CHANNELS 3 Xrotation Yrotation Zrotation
									JOINT mixamorig:LeftHandMiddle2
									{
										OFFSET 6.378677 0.000000 0.000000
										CHANNELS 3 Xrotation Yrotation Zrotation
										JOINT mixamorig:LeftHandMiddle3
										{
											OFFSET 6.148331 0.000000 0.000000
											CHANNELS 3 Xrotation Yrotation Zrotation
											JOINT mixamorig:LeftHandMiddle4
											{
												OFFSET 6.582504 0.000000 0.000000
												CHANNELS 3 Xrotation Yrotation Zrotation
												End Site
												{
													OFFSET -1.168900 6.395691 1.028606
												}
											}
										}
									}
								}
								JOINT mixamorig:LeftHandThumb1
								{
									OFFSET 7.235672 -3.848206 5.434273
									CHANNELS 3 Xrotation Yrotation Zrotation
									JOINT mixamorig:LeftHandThumb2
									{
										OFFSET 6.568451 -3.792297 3.792300
										CHANNELS 3 Xrotation Yrotation Zrotation
										JOINT mixamorig:LeftHandThumb3
										{
											OFFSET 6.063080 -3.500519 3.500518
											CHANNELS 3 Xrotation Yrotation Zrotation
											JOINT mixamorig:LeftHandThumb4
											{
												OFFSET 4.793182 -2.767334 2.767349
												CHANNELS 3 Xrotation Yrotation Zrotation
												End Site
												{
													OFFSET 0.101639 6.054260 1.275483
												}
											}
										}
									}
								}
								JOINT mixamorig:LeftHandIndex1
								{
									OFFSET 23.101074 -0.309540 4.992809
									CHANNELS 3 Xrotation Yrotation Zrotation
									JOINT mixamorig:LeftHandIndex2
									{
										OFFSET 6.226883 0.000000 0.000000
										CHANNELS 3 Xrotation Yrotation Zrotation
										JOINT mixamorig:LeftHandIndex3
										{
											OFFSET 6.094330 0.000000 0.000000
											CHANNELS 3 Xrotation Yrotation Zrotation
											JOINT mixamorig:LeftHandIndex4
											{
												OFFSET 5.482605 0.000000 0.000000
												CHANNELS 3 Xrotation Yrotation Zrotation
												End Site
												{
													OFFSET -1.427902 5.233032 0.797164
												}
											}
										}
									}
								}
								JOINT mixamorig:LeftHandRing1
								{
									OFFSET 22.299240 0.021149 -3.964172
									CHANNELS 3 Xrotation Yrotation Zrotation
									JOINT mixamorig:LeftHandRing2
									{
										OFFSET 6.321869 0.000000 0.000000
										CHANNELS 3 Xrotation Yrotation Zrotation
										JOINT mixamorig:LeftHandRing3
										{
											OFFSET 5.899796 0.000000 0.000000
											CHANNELS 3 Xrotation Yrotation Zrotation
											JOINT mixamorig:LeftHandRing4
											{
												OFFSET 6.517899 0.000000 0.000000
												CHANNELS 3 Xrotation Yrotation Zrotation
												End Site
												{
													OFFSET -1.637299 6.232208 0.980890
												}
											}
										}
									}
								}
								JOINT mixamorig:LeftHandPinky1
								{
									OFFSET 20.463791 -0.302338 -8.562233
									CHANNELS 3 Xrotation Yrotation Zrotation
									JOINT mixamorig:LeftHandPinky2
									{
										OFFSET 6.908646 0.000000 0.000000
										CHANNELS 3 Xrotation Yrotation Zrotation
										JOINT mixamorig:LeftHandPinky3
										{
											OFFSET 4.622849 0.000000 0.000000
											CHANNELS 3 Xrotation Yrotation Zrotation
											JOINT mixamorig:LeftHandPinky4
											{
												OFFSET 5.216080 0.000000 0.000000
												CHANNELS 3 Xrotation Yrotation Zrotation
												End Site
												{
													OFFSET -0.606308 5.116241 0.814926
												}
											}
										}
									}
								}
							}
						}
					}
				}
				JOINT mixamorig:RightShoulder
				{
					OFFSET -12.001300 18.284088 1.348900
					CHANNELS 3 Xrotation Yrotation Zrotation
					JOINT mixamorig:RightArm
					{
						OFFSET -25.308500 -0.751312 -5.164599
						CHANNELS 3 Xrotation Yrotation Zrotation
						JOINT mixamorig:RightForeArm
						{
							OFFSET -54.684429 0.000000 0.000000
							CHANNELS 3 Xrotation Yrotation Zrotation
							JOINT mixamorig:RightHand
							{
								OFFSET -55.150291 0.000000 0.000000
								CHANNELS 3 Xrotation Yrotation Zrotation
								JOINT mixamorig:RightHandMiddle1
								{
									OFFSET -23.317566 0.000000 0.000000
									CHANNELS 3 Xrotation Yrotation Zrotation
									JOINT mixamorig:RightHandMiddle2
									{
										OFFSET -6.378403 0.000000 0.000000
										CHANNELS 3 Xrotation Yrotation Zrotation
										JOINT mixamorig:RightHandMiddle3
										{
											OFFSET -6.148193 0.000000 0.000000
											CHANNELS 3 Xrotation Yrotation Zrotation
											JOINT mixamorig:RightHandMiddle4
											{
												OFFSET -6.583389 0.000000 0.000000
												CHANNELS 3 Xrotation Yrotation Zrotation
												End Site
												{
													OFFSET 1.171692 6.395905 1.029786
												}
											}
										}
									}
								}
								JOINT mixamorig:RightHandThumb1
								{
									OFFSET -7.190521 -3.860474 5.435846
									CHANNELS 3 Xrotation Yrotation Zrotation
									JOINT mixamorig:RightHandThumb2
									{
										OFFSET -6.567429 -3.791718 3.791708
										CHANNELS 3 Xrotation Yrotation Zrotation
										JOINT mixamorig:RightHandThumb3
										{
											OFFSET -6.062469 -3.500153 3.500166
											CHANNELS 3 Xrotation Yrotation Zrotation
											JOINT mixamorig:RightHandThumb4
											{
												OFFSET -4.792618 -2.767029 2.767022
												CHANNELS 3 Xrotation Yrotation Zrotation
												End Site
												{
													OFFSET -0.100327 6.053253 1.276754
												}
											}
										}
									}
								}
								JOINT mixamorig:RightHandIndex1
								{
									OFFSET -23.048981 -0.310791 4.992554
									CHANNELS 3 Xrotation Yrotation Zrotation
									JOINT mixamorig:RightHandIndex2
									{
										OFFSET -6.227539 0.000000 0.000000
										CHANNELS 3 Xrotation Yrotation Zrotation
										JOINT mixamorig:RightHandIndex3
										{
											OFFSET -6.095047 0.000000 0.000000
											CHANNELS 3 Xrotation Yrotation Zrotation
											JOINT mixamorig:RightHandIndex4
											{
												OFFSET -5.484772 0.000000 0.000000
												CHANNELS 3 Xrotation Yrotation Zrotation
												End Site
												{
													OFFSET 1.420593 5.237305 0.797056
												}
											}
										}
									}
								}
								JOINT mixamorig:RightHandRing1
								{
									OFFSET -22.246323 0.020569 -3.963762
									CHANNELS 3 Xrotation Yrotation Zrotation
									JOINT mixamorig:RightHandRing2
									{
										OFFSET -6.322128 0.000000 0.000000
										CHANNELS 3 Xrotation Yrotation Zrotation
										JOINT mixamorig:RightHandRing3
										{
											OFFSET -5.900024 0.000000 0.000000
											CHANNELS 3 Xrotation Yrotation Zrotation
											JOINT mixamorig:RightHandRing4
											{
												OFFSET -6.518356 0.000000 0.000000
												CHANNELS 3 Xrotation Yrotation Zrotation
												End Site
												{
													OFFSET 1.636398 6.232697 0.982186
												}
											}
										}
									}
								}
								JOINT mixamorig:RightHandPinky1
								{
									OFFSET -20.411011 -0.303314 -8.561701
									CHANNELS 3 Xrotation Yrotation Zrotation
									JOINT mixamorig:RightHandPinky2
									{
										OFFSET -6.907349 0.000000 0.000000
										CHANNELS 3 Xrotation Yrotation Zrotation
										JOINT mixamorig:RightHandPinky3
										{
											OFFSET -4.623840 0.000000 0.000000
											CHANNELS 3 Xrotation Yrotation Zrotation
											JOINT mixamorig:RightHandPinky4
											{
												OFFSET -5.218353 0.000000 0.000000
												CHANNELS 3 Xrotation Yrotation Zrotation
												End Site
												{
													OFFSET 0.602097 5.118835 0.816273
												}
											}
										}
									}
								}
							}
						}
					}
				}
			}
		}
	}
	JOINT mixamorig:LeftUpLeg
	{
		OFFSET 18.168400 -13.561905 -0.039000
		CHANNELS 3 Xrotation Yrotation Zrotation
		JOINT mixamorig:LeftLeg
		{
			OFFSET 0.577358 -80.825211 -3.695000
			CHANNELS 3 Xrotation Yrotation Zrotation
			JOINT mixamorig:LeftFoot
			{
				OFFSET -0.577356 -83.370262 -6.520700
				CHANNELS 3 Xrotation Yrotation Zrotation
				JOINT mixamorig:LeftToeBase
				{
					OFFSET 0.750401 -20.798306 25.135401
					CHANNELS 3 Xrotation Yrotation Zrotation
					JOINT mixamorig:LeftToe_End
					{
						OFFSET -0.000500 0.001200 19.917799
						CHANNELS 3 Xrotation Yrotation Zrotation
						End Site
						{
							OFFSET 0.000000 19.917805 0.000000
						}
					}
				}
			}
		}
	}
	JOINT mixamorig:RightUpLeg
	{
		OFFSET -18.162500 -13.585098 -0.041000
		CHANNELS 3 Xrotation Yrotation Zrotation
		JOINT mixamorig:RightLeg
		{
			OFFSET -0.595024 -80.945297 -3.631900
			CHANNELS 3 Xrotation Yrotation Zrotation
			JOINT mixamorig:RightFoot
			{
				OFFSET 0.595024 -83.218193 -6.561200
				CHANNELS 3 Xrotation Yrotation Zrotation
				JOINT mixamorig:RightToeBase
				{
					OFFSET -0.753601 -20.807106 25.115000
					CHANNELS 3 Xrotation Yrotation Zrotation
					JOINT mixamorig:RightToe_End
					{
						OFFSET 0.000299 0.001700 19.918200
						CHANNELS 3 Xrotation Yrotation Zrotation
						End Site
						{
							OFFSET 0.000000 19.918203 0.000000
						}
					}
				}
			}
		}
	}
}
MOTION
Frames: 4
Frame Time: 0.033333
-13.518860 168.251740 2.010395 12.895726 37.648040 -2.063407 16.464533 4.217289 -11.138093 4.604883 1.727696 -2.107183 4.584382 1.792784 -2.100137 -2.322671 2.458441 -5.765614 -24.822362 4.748955 5.797308 0.000000 -0.000000 0.000000 0.000000 -0.000000 0.000000 0.000000 -0.000000 0.000000 1.764828 -4.453271 -8.822242 -20.172375 -21.526554 -54.516313 0.000004 -18.506266 -0.000010 16.919837 0.946330 -0.538358 2.390713 5.851356 -31.377729 0.522592 2.635830 -22.425019 0.041126 0.753012 -6.252493 -0.000002 0.000000 -0.000000 -5.731737 -9.450228 17.163227 9.627824 26.499951 -3.163681 -2.922242 -7.576597 4.193851 0.000000 0.000000 -0.000005 -0.579178 -0.990994 -16.472504 0.698360 3.026375 -25.982414 0.006155 0.291662 -2.417560 -0.000000 -0.000000 -0.000001 3.652687 6.799306 -40.562376 0.653515 2.932702 -25.119662 0.173041 1.536982 -12.846426 -0.000002 0.000000 -0.000002 19.331428 15.324089 -59.532625 0.136309 -2.662315 -12.127102 0.175118 1.546064 -12.923650 0.000000 -0.000001 -0.000000 0.166421 4.721179 -6.242600 5.258242 26.145500 59.797801 0.000016 69.826772 -0.000018 -3.567757 1.437845 -36.596208 1.255501 -3.512174 24.938839 1.957204 -4.840128 44.013882 0.421407 -2.388124 20.011949 0.000000 -0.000003 -0.000003 -13.054201 2.312952 -11.062308 5.870899 -11.955675 -0.031990 -4.127129 8.184856 -1.926552 0.000000 -0.000000 0.000004 -0.248795 1.331490 18.989577 2.655420 -5.468594 51.774009 0.357535 -2.205003 18.417878 0.000001 0.000001 -0.000001 3.474253 -7.525071 32.500892 0.810528 -3.263038 27.893041 0.129625 -1.338959 11.057611 -0.000002 -0.000000 -0.000002 3.928212 -9.704264 36.936888 0.915985 -3.454535 29.692451 0.055335 -0.877221 7.217843 -0.000002 0.000000 0.000000 -46.315854 2.226026 -0.147182 69.723029 -5.162453 0.024595 -33.687026 0.655852 -1.202533 -3.445133 -0.000006 -0.000002 0.000000 0.000001 0.000000 -60.320003 -8.548130 -14.038144 108.143457 -9.300842 6.609908 8.428576 -6.152166 -13.541670 1.130805 -0.000003 -0.000003 0.000002 0.000001 -0.000001 
-13.871615 171.499191 21.850536 11.839312 38.655589 -3.436351 16.899252 2.990067 -8.721878 4.873021 1.327723 -1.592009 4.857129 1.401266 -1.583466 -2.340009 2.498441 -5.225178 -24.283136 5.801476 5.053784 0.000001 -0.000002 0.000000 0.000001 -0.000002 0.000000 0.000001 -0.000002 0.000000 2.240225 -8.378190 -9.352307 -24.428819 -28.153961 -55.609986 0.000004 -28.986974 -0.000002 10.936230 1.065340 4.498133 2.099168 5.357891 -31.639383 0.565937 2.738388 -23.349536 0.041106 0.752740 -6.250219 -0.000001 -0.000001 -0.000001 -5.817168 -9.761752 17.217558 9.508538 26.050331 -3.023090 -2.951574 -7.710004 4.216992 0.000000 0.000000 -0.000004 -0.613612 -1.229335 -15.893802 0.704785 3.039511 -26.103851 0.007250 0.316525 -2.623848 -0.000000 -0.000001 -0.000001 3.663603 6.740082 -41.507828 0.700122 3.029986 -26.015726 0.183159 1.580682 -13.218407 -0.000002 -0.000001 0.000001 19.366856 15.257528 -59.838973 0.142299 -2.634769 -12.360458 0.180056 1.567418 -13.105341 -0.000001 -0.000000 0.000001 0.161409 3.701559 -4.780417 10.142226 25.819134 60.513304 0.000027 52.448568 -0.000018 -5.255265 9.339438 -37.201059 1.792398 -4.272374 26.667575 2.050698 -4.934717 45.111412 0.410216 -2.357153 19.741082 0.000002 0.000000 -0.000000 -12.469000 1.620983 -12.191388 5.782470 -11.723481 -0.044795 -4.166291 8.301645 -1.925857 -0.000001 -0.000001 -0.000001 0.256432 0.381279 19.548078 2.685104 -5.491748 52.084741 0.321371 -2.093376 17.453850 0.000000 0.000001 -0.000001 3.974475 -7.979015 34.528628 0.884701 -3.399218 29.169204 0.117851 -1.277352 10.542636 -0.000001 -0.000000 0.000000 4.715639 -10.186250 39.024037 0.985018 -3.572699 30.819306 0.047678 -0.814533 6.699376 -0.000001 0.000000 -0.000000 -37.132419 1.202162 5.672580 64.688319 -6.628366 2.671327 -34.967693 1.273334 -4.581815 -6.717769 0.000019 -0.000001 -0.000000 0.000002 0.000000 -64.939260 -2.964993 -12.390553 100.662433 -10.025625 4.853067 2.457023 -11.907076 -11.721085 2.526464 -0.000005 -0.000005 0.000000 -0.000002 -0.000001 
-13.765723 176.064102 42.628910 10.834419 39.011336 -5.026422 16.901115 1.671010 -5.961488 4.991966 0.855854 -1.003388 4.980272 0.938234 -0.995290 -2.608486 2.757022 -4.703626 -23.720624 7.792208 4.603705 -0.000000 -0.000001 0.000000 -0.000000 -0.000001 0.000000 -0.000000 -0.000001 0.000000 2.591391 -10.789971 -8.789602 -25.564406 -33.126882 -55.829922 0.000010 -43.897445 0.000008 6.062410 2.149204 9.320037 1.852389 4.894924 -33.130502 0.628543 2.878904 -24.627050 0.039646 0.739337 -6.138507 -0.000000 -0.000003 0.000001 -5.796799 -9.773338 17.333033 9.566532 26.111250 -3.028715 -2.866177 -7.307699 4.145233 0.000002 -0.000002 -0.000001 -0.696983 -1.337268 -16.766894 0.723658 3.077670 -26.457562 0.007477 0.321598 -2.665843 -0.000002 0.000004 -0.000003 3.694743 6.685798 -42.709603 0.749981 3.129903 -26.943392 0.185542 1.590806 -13.304678 0.000000 -0.000001 -0.000002 19.429868 15.084423 -60.386536 0.152558 -2.588740 -12.750756 0.182333 1.577178 -13.188498 0.000000 -0.000001 0.000002 0.318870 3.780487 -3.518601 16.432516 25.171286 60.027650 0.000010 40.827937 -0.000015 -6.911130 12.885749 -36.242763 2.043731 -4.405368 28.974390 2.103494 -4.986556 45.722058 0.382816 -2.279495 19.064275 0.000002 -0.000000 0.000001 -12.287912 1.448603 -12.747611 5.736681 -11.602961 -0.051449 -4.049909 7.972843 -1.937893 -0.000001 -0.000002 0.000001 0.497627 -0.039003 20.718272 2.691307 -5.496552 52.149563 0.260918 -1.890499 15.714616 0.000001 0.000001 -0.000002 4.189696 -8.183858 36.083343 0.931346 -3.481307 29.946579 0.097057 -1.160109 9.565198 -0.000000 -0.000000 0.000001 5.273248 -11.006539 39.124973 1.057112 -3.690667 31.957526 0.039048 -0.737366 6.061994 0.000000 0.000001 -0.000001 -27.315865 1.601423 11.959023 56.095958 -7.281780 5.824762 -29.496845 0.965813 -10.373545 -12.811750 -0.000015 -0.000000 -0.000000 0.000001 -0.000000 -65.612833 -0.280246 -11.861045 87.822511 -10.339134 2.656851 -2.285197 -16.403469 -11.125117 2.259249 0.000002 -0.000009 -0.000001 -0.000001 -0.000002 
-13.348949 180.990570 64.635590 10.554492 38.417082 -6.400719 16.247268 0.120589 -3.483239 4.855688 0.305089 -0.480629 4.848822 0.389947 -0.476287 -3.086120 3.245364 -4.306354 -23.158385 10.661464 4.497063 0.000000 0.000001 0.000000 0.000000 0.000001 0.000000 0.000000 0.000001 0.000000 2.798304 -11.451470 -7.413084 -23.464319 -35.358837 -54.326362 0.000024 -62.866659 0.000018 2.527587 3.865346 13.399676 1.633827 4.502458 -36.019351 0.726417 3.083190 -26.508883 0.037300 0.717246 -5.954382 -0.000001 -0.000003 0.000001 -5.586468 -9.369112 17.737713 9.802917 26.700415 -3.188518 -2.635767 -6.272006 3.962357 -0.000002 -0.000001 -0.000001 -0.829267 -1.188712 -19.519993 0.760781 3.151078 -27.140996 0.007319 0.318061 -2.636503 0.000000 -0.000000 -0.000001 3.834153 6.713916 -44.328375 0.807795 3.240996 -27.984093 0.183214 1.580957 -13.220757 0.000001 0.000000 0.000001 19.461115 14.811921 -61.074725 0.165331 -2.533430 -13.220551 0.185188 1.589253 -13.291340 -0.000001 -0.000003 -0.000000 0.657498 5.281750 -2.506221 23.767938 24.027583 58.847510 0.000001 35.508873 0.000004 -8.548628 11.865746 -34.930154 1.974353 -4.023489 31.260283 2.099004 -4.982179 45.670142 0.345636 -2.168975 18.106172 0.000000 -0.000000 -0.000000 -12.466085 1.712741 -12.672106 5.740466 -11.612952 -0.050908 -3.788941 7.231225 -1.960970 0.000002 -0.000001 0.000003 0.457652 0.062151 22.103322 2.670718 -5.480558 51.934399 0.193165 -1.630752 13.509737 0.000002 0.000001 -0.000005 4.055085 -8.150697 36.856240 0.943700 -3.502629 30.149398 0.073263 -1.008794 8.307767 -0.000000 0.000002 0.000000 5.548904 -12.125765 37.335142 1.131522 -3.807065 33.095391 0.030179 -0.648568 5.329807 -0.000001 -0.000001 -0.000000 -19.104753 3.403984 17.404582 46.466293 -6.592150 7.983120 -15.242610 -1.213810 -13.879380 -20.787696 0.081194 -2.667247 0.000000 0.000001 0.000000 -63.297323 0.439114 -12.294216 70.574200 -10.559028 0.156346 -3.631281 -15.416743 -9.048213 0.061516 -0.000002 0.000004 0.000000 0.000001 -0.000002 
